# xmcd CD database file
#
# Track frame offsets:
#	182
#	30642
#	48920
#	66777
#	99870
#	125215
#	147277
#	165745
#	173907
#	184182
#	214557
#	239337
#
# Disc length: 3423 seconds
#
# Revision: 11
# Processed by: cddbd v1.5.2PL0 Copyright (c) Steve Scherf et al.
# Submitted via: CDex 1.51
#
DISCID=a60d5d0c
DTITLE=Angelo Badalamenti - Twin Peaks - Fire Walk With Me
DYEAR=1992
DGENRE=Jazz
TTITLE0=Theme From Twin Peaks - Fire Walk With Me
TTITLE1=The Pine Float
TTITLE2=Sycamore Trees
TTITLE3=Don't Do Anything (I Wouldn't Do)
TTITLE4=A Real Indication
TTITLE5=Questions In A World Of Blue
TTITLE6=The Pink Room
TTITLE7=The Black Dog Runs At Night
TTITLE8=Best Friends
TTITLE9=Moving Through Time
TTITLE10=Montage From Twin Peaks
TTITLE11=The Voice Of Love
EXTD=YEAR: 1992
EXTT0=Angelo Badalamenti
EXTT1=Angelo Badalamenti
EXTT2=David Lynch*Angelo Badalamenti
EXTT3=Angelo Badalamenti
EXTT4=Thought Gang*David Lynch*Angelo Badalamenti
EXTT5=David Lynch*Angelo Badalamenti
EXTT6=David Lynch
EXTT7=Thought Gang*David Lynch*Angelo Badalamenti
EXTT8=David Lynch*David Slusser
EXTT9=Angelo Badalamenti
EXTT10=Angelo Badalamenti
EXTT11=Angelo Badalamenti
PLAYORDER=
